<svg width="33" height="32" viewBox="0 0 33 32" fill="none" xmlns="http://www.w3.org/2000/svg">
<path d="M23.8333 8.66666H23.8467M9.83332 2.66666H23.1667C26.8486 2.66666 29.8333 5.65142 29.8333 9.33332V22.6667C29.8333 26.3486 26.8486 29.3333 23.1667 29.3333H9.83332C6.15142 29.3333 3.16666 26.3486 3.16666 22.6667V9.33332C3.16666 5.65142 6.15142 2.66666 9.83332 2.66666ZM21.8333 15.16C21.9979 16.2697 21.8083 17.4029 21.2917 18.3987C20.775 19.3944 19.9575 20.2019 18.9555 20.7062C17.9535 21.2106 16.8179 21.3861 15.7104 21.2079C14.6028 21.0297 13.5797 20.5068 12.7864 19.7135C11.9932 18.9203 11.4703 17.8972 11.2921 16.7896C11.1139 15.6821 11.2894 14.5465 11.7938 13.5445C12.2981 12.5425 13.1056 11.725 14.1013 11.2083C15.097 10.6916 16.2303 10.5021 17.34 10.6667C18.4719 10.8345 19.5198 11.3619 20.3289 12.1711C21.138 12.9802 21.6655 14.0281 21.8333 15.16Z" stroke="white" stroke-width="3" stroke-linecap="round" stroke-linejoin="round"/>
</svg>
