<svg width="33" height="32" viewBox="0 0 33 32" fill="none" xmlns="http://www.w3.org/2000/svg">
<path d="M21.8334 10.6667C23.9551 10.6667 25.9899 11.5095 27.4902 13.0098C28.9905 14.5101 29.8334 16.5449 29.8334 18.6667V28H24.5V18.6667C24.5 17.9594 24.2191 17.2811 23.719 16.781C23.2189 16.2809 22.5406 16 21.8334 16C21.1261 16 20.4478 16.2809 19.9477 16.781C19.4476 17.2811 19.1667 17.9594 19.1667 18.6667V28H13.8334V18.6667C13.8334 16.5449 14.6762 14.5101 16.1765 13.0098C17.6768 11.5095 19.7116 10.6667 21.8334 10.6667Z" stroke="white" stroke-width="3" stroke-linecap="round" stroke-linejoin="round"/>
<path d="M8.50002 12H3.16669V28H8.50002V12Z" stroke="white" stroke-width="3" stroke-linecap="round" stroke-linejoin="round"/>
<path d="M5.83335 7.99999C7.30611 7.99999 8.50002 6.80608 8.50002 5.33332C8.50002 3.86056 7.30611 2.66666 5.83335 2.66666C4.36059 2.66666 3.16669 3.86056 3.16669 5.33332C3.16669 6.80608 4.36059 7.99999 5.83335 7.99999Z" stroke="white" stroke-width="3" stroke-linecap="round" stroke-linejoin="round"/>
</svg>
