<svg width="33" height="32" viewBox="0 0 33 32" fill="none" xmlns="http://www.w3.org/2000/svg">
<g clip-path="url(#clip0_51_413)">
<path d="M30.5533 8.56001C30.395 7.92722 30.0724 7.34744 29.6182 6.87922C29.164 6.411 28.5943 6.07092 27.9667 5.89334C25.6733 5.33334 16.5 5.33334 16.5 5.33334C16.5 5.33334 7.32668 5.33334 5.03334 5.94668C4.40567 6.12426 3.83598 6.46433 3.3818 6.93255C2.92763 7.40077 2.60506 7.98056 2.44668 8.61334C2.02696 10.9408 1.82166 13.3018 1.83334 15.6667C1.81838 18.0494 2.0237 20.4284 2.44668 22.7733C2.62129 23.3865 2.95108 23.9442 3.4042 24.3927C3.85732 24.8411 4.41844 25.1651 5.03334 25.3333C7.32668 25.9467 16.5 25.9467 16.5 25.9467C16.5 25.9467 25.6733 25.9467 27.9667 25.3333C28.5943 25.1558 29.164 24.8157 29.6182 24.3475C30.0724 23.8792 30.395 23.2995 30.5533 22.6667C30.9698 20.3568 31.1751 18.0138 31.1667 15.6667C31.1816 13.284 30.9763 10.9049 30.5533 8.56001Z" stroke="white" stroke-width="3" stroke-linecap="round" stroke-linejoin="round"/>
<path d="M13.5 20.0267L21.1667 15.6667L13.5 11.3067V20.0267Z" stroke="white" stroke-width="3" stroke-linecap="round" stroke-linejoin="round"/>
</g>
<defs>
<clipPath id="clip0_51_413">
<rect width="32" height="32" fill="white" transform="translate(0.5)"/>
</clipPath>
</defs>
</svg>
